# xmcd
#
# Track frame offsets:
#	150
#	11875
#	22387
#	32875
#	44912
#	61862
#	73475
#	88262
#	98687
#	106425
#	121925
#	138012
#	148112
#	158700
#	170912
#	184075
#	197400
#	217025
#	227000
#	241775
#	254300
#	267637
#	277700
#	289975
#	303562
#
# Disc length: 4184
#
# Revision: 3
# Processed by: cddbd v1.5.1PL0 Copyright (c) Steve Scherf et al.
# Submitted via: EasyCDDAExtractor 6.5.2.1
# Normalized: r2:DSETVAR1
#
DISCID=83105619
DTITLE=Various Artist - I Fall To Pieces - 25 Country Classics
DYEAR=1900
DGENRE=Country Classics
TTITLE0=George Jones - Talk Back Trembling Lips
TTITLE1=Billie Jo Spears - It Makes No Differenc Now
TTITLE2=Don Gibson - Sea Of Heartbreak
TTITLE3=Wanda Jackson - Sweet Dreams
TTITLE4=Ferlin Husky - For The Good Times
TTITLE5=Lynn Anderson - Listen To A Country Song
TTITLE6=Leon Rausch - San Antonio Rose
TTITLE7=Patsy Cline - Three Cigarettes In An Ashtray
TTITLE8=Jim Reeves - Bimbo
TTITLE9=Barbara Fairchild - Slippin' Away
TTITLE10=Johnny Russell - Luchenbach Texas
TTITLE11=Donna Fargo - Sticks And Stones
TTITLE12=Johnny Paycheck - A-11
TTITLE13=Anne Murray - The Last Thing On My Mind
TTITLE14=Faron Young - Apartment No.9
TTITLE15=Wanda Jackson - I Fall To Pieces
TTITLE16=Jerry Lee Lewis - There Must Be More To Love Than This
TTITLE17=Patsy Cline - Turn The Cards Slowly
TTITLE18=Cowboy Copas - A Satisifed Mind
TTITLE19=Del Shannon - She Thinks I Still Care
TTITLE20=Johnny Darrell - The Son Of Hickory Holler's Tramp
TTITLE21=Stonewall Jackson - Shake 'em Up And Roll 'em
TTITLE22=Kenny Rogers - Me and Bobby Mcgee
TTITLE23=Johnny Russell - Catfish John
TTITLE24=Faron Young - Here Comes My Baby Back Again
EXTD=
EXTT0=
EXTT1=
EXTT2=
EXTT3=
EXTT4=
EXTT5=
EXTT6=
EXTT7=
EXTT8=
EXTT9=
EXTT10=
EXTT11=
EXTT12=
EXTT13=
EXTT14=
EXTT15=
EXTT16=
EXTT17=
EXTT18=
EXTT19=
EXTT20=
EXTT21=
EXTT22=
EXTT23=
EXTT24=
PLAYORDER=
